<svg width="24" height="24" viewBox="0 0 24 24" fill="none" xmlns="http://www.w3.org/2000/svg">
<path d="M17 12C17 12.6566 16.8707 13.3068 16.6194 13.9134C16.3681 14.52 15.9998 15.0712 15.5355 15.5355C15.3429 15.7281 15.1354 15.9042 14.9151 16.0623M7 12C7 12.6566 7.12933 13.3068 7.3806 13.9134C7.63188 14.52 8.00017 15.0712 8.46447 15.5355C8.65706 15.7281 8.8646 15.9042 9.08486 16.0623M12 7C12.8284 7 13.5 6.32843 13.5 5.5C13.5 4.67157 12 2 12 2C12 2 10.5 4.67157 10.5 5.5C10.5 6.32843 11.1716 7 12 7ZM12 7V12M17.5 9C18.3284 9 19 8.32843 19 7.5C19 6.67157 17.5 4 17.5 4C17.5 4 16 6.67157 16 7.5C16 8.32843 16.6716 9 17.5 9ZM17.5 9L17.5 12M6.5 9C7.32843 9 8 8.32843 8 7.5C8 6.67157 6.5 4 6.5 4C6.5 4 5 6.67157 5 7.5C5 8.32843 5.67157 9 6.5 9ZM6.5 9V12M21 15.3285C20.4055 16.0641 19.5898 16.5988 18.6647 16.8467C17.5119 17.1556 15.5849 16.732 15.25 16.3971C14.9151 16.0623 14.9151 16.0623 14.9151 16.0623M21 15.3285V14C21 12.8954 20.1046 12 19 12H5C3.89543 12 3 12.8954 3 14V15.3285M21 15.3285V19C21 20.1046 20.1046 21 19 21H5C3.89543 21 3 20.1046 3 19V15.3285M3 15.3285C3.59451 16.0641 4.4102 16.5988 5.33531 16.8467C6.48812 17.1556 8.41514 16.732 8.75 16.3971C9.08486 16.0623 9.08486 16.0623 9.08486 16.0623M9.08486 16.0623C9.39558 16.2852 9.73159 16.4724 10.0866 16.6194C10.6932 16.8707 11.3434 17 12 17C12.6566 17 13.3068 16.8707 13.9134 16.6194C14.2684 16.4724 14.6044 16.2852 14.9151 16.0623" stroke="white" stroke-width="2" stroke-linecap="round" stroke-linejoin="round"/>
</svg>
