<svg width="32" height="32" viewBox="0 0 32 32" fill="none" xmlns="http://www.w3.org/2000/svg">
<g clip-path="url(#clip0_0_72)">
<path fill-rule="evenodd" clip-rule="evenodd" d="M16.0004 0.666687C12.202 0.668658 8.52818 2.01396 5.63583 4.46205C2.74348 6.91014 0.821209 10.3014 0.212731 14.0294C-0.395747 17.7573 0.349241 21.579 2.3145 24.8109C4.27976 28.0429 7.33712 30.4744 10.9399 31.6706C11.7347 31.8182 12.0341 31.3255 12.0341 30.9067C12.0341 30.4878 12.0182 29.2734 12.0129 27.9456C7.56187 28.9072 6.62132 26.0673 6.62132 26.0673C5.89537 24.2233 4.84619 23.7385 4.84619 23.7385C3.39429 22.7533 4.95482 22.7717 4.95482 22.7717C6.56304 22.885 7.40821 24.4129 7.40821 24.4129C8.83361 26.8445 11.1519 26.1411 12.0633 25.7301C12.2063 24.7001 12.6223 23.9994 13.0807 23.6016C9.52511 23.2011 5.78939 21.8365 5.78939 15.7406C5.76735 14.1596 6.35737 12.6308 7.43735 11.4703C7.27309 11.0698 6.72464 9.45233 7.59366 7.25526C7.59366 7.25526 8.93694 6.82849 11.9944 8.88594C14.6169 8.17285 17.3838 8.17285 20.0063 8.88594C23.0611 6.82849 24.4017 7.25526 24.4017 7.25526C25.2734 9.44706 24.725 11.0646 24.5607 11.4703C25.6441 12.6309 26.2354 14.1625 26.2113 15.7459C26.2113 21.855 22.4676 23.2011 18.9068 23.5937C19.4791 24.0889 19.9904 25.0557 19.9904 26.5415C19.9904 28.6701 19.9719 30.3824 19.9719 30.9067C19.9719 31.3308 20.2607 31.8261 21.0714 31.6706C24.6746 30.4742 27.7323 28.0423 29.6975 24.8098C31.6627 21.5773 32.4073 17.7551 31.7981 14.0268C31.189 10.2984 29.2657 6.90716 26.3724 4.45949C23.4791 2.01183 19.8045 0.667409 16.0056 0.666687H16.0004Z" fill="white"/>
<path d="M10.7038 26.6337C10.7038 26.7628 10.5554 26.8734 10.3647 26.876C10.1739 26.8787 10.0176 26.7733 10.0176 26.6442C10.0176 26.5151 10.1659 26.4045 10.3567 26.4018C10.5475 26.3992 10.7038 26.502 10.7038 26.6337Z" fill="white"/>
<path d="M11.9225 26.4308C11.9464 26.5599 11.8139 26.6943 11.6231 26.7259C11.4324 26.7575 11.2655 26.6811 11.2416 26.5546C11.2178 26.4282 11.3556 26.2912 11.541 26.257C11.7265 26.2227 11.8987 26.3017 11.9225 26.4308Z" fill="white"/>
<path d="M9.39489 26.5441C9.35515 26.668 9.17499 26.7233 8.99483 26.6706C8.81466 26.6179 8.69544 26.4704 8.72988 26.3439C8.76432 26.2175 8.94714 26.1595 9.12995 26.2175C9.31276 26.2754 9.42934 26.4151 9.39489 26.5441Z" fill="white"/>
<path d="M8.19474 26.0278C8.10731 26.1253 7.9298 26.0989 7.78408 25.9672C7.63836 25.8355 7.60391 25.6564 7.69134 25.5615C7.77877 25.4667 7.95628 25.493 8.1073 25.6221C8.25832 25.7512 8.28747 25.933 8.19474 26.0278V26.0278Z" fill="white"/>
<path d="M7.33899 25.1426C7.24096 25.2111 7.07403 25.1426 6.9813 25.0057C6.95566 24.9811 6.93527 24.9516 6.92134 24.919C6.90741 24.8864 6.90022 24.8514 6.90022 24.816C6.90022 24.7806 6.90741 24.7455 6.92134 24.7129C6.93527 24.6803 6.95566 24.6509 6.9813 24.6263C7.07933 24.5605 7.24626 24.6263 7.33899 24.7607C7.43172 24.895 7.43437 25.0742 7.33899 25.1426V25.1426Z" fill="white"/>
<path d="M6.70839 24.2285C6.65352 24.256 6.59075 24.2637 6.53082 24.2502C6.47089 24.2368 6.41753 24.203 6.37986 24.1548C6.27653 24.0441 6.25533 23.8913 6.33481 23.8228C6.41429 23.7544 6.55738 23.786 6.6607 23.8966C6.76403 24.0073 6.78788 24.16 6.70839 24.2285Z" fill="white"/>
<path d="M6.05925 23.5093C6.02481 23.5884 5.89764 23.6121 5.79431 23.5568C5.69098 23.5014 5.61415 23.3987 5.65124 23.317C5.68834 23.2354 5.81286 23.2143 5.91619 23.2696C6.01952 23.3249 6.09899 23.4303 6.05925 23.5093Z" fill="white"/>
</g>
<defs>
<clipPath id="clip0_0_72">
<rect width="32" height="32" fill="white"/>
</clipPath>
</defs>
</svg>
