<svg width="14" height="14" viewBox="0 0 14 14" fill="none" xmlns="http://www.w3.org/2000/svg">
    <g clip-path="url(#v1ycujvhpa)">
        <path d="M13.892 12.154 7.767 1.012A.864.864 0 0 0 7 .561c-.324 0-.61.169-.767.451L.108 12.154a.859.859 0 0 0 .014.857c.158.269.44.43.753.43h12.25c.313 0 .595-.161.753-.43a.859.859 0 0 0 .014-.857zm-7.03-7.102a.837.837 0 0 1 .967.956l-.553 3.28a.28.28 0 0 1-.552 0l-.552-3.28a.832.832 0 0 1 .69-.956zM7 11.76a.841.841 0 0 1 0-1.68.841.841 0 0 1 0 1.68z" fill="#C71A2F"/>
    </g>
    <defs>
        <clipPath id="v1ycujvhpa">
            <path fill="#fff" d="M0 0h14v14H0z"/>
        </clipPath>
    </defs>
</svg>
