<?xml version="1.0" encoding="utf-8"?>
<!-- Generator: Adobe Illustrator 23.0.2, SVG Export Plug-In . SVG Version: 6.00 Build 0)  -->
<svg version="1.1" id="Слой_1" xmlns="http://www.w3.org/2000/svg" xmlns:xlink="http://www.w3.org/1999/xlink" x="0px" y="0px"
	 viewBox="0 0 1000 1000" style="enable-background:new 0 0 1000 1000;" xml:space="preserve">
<style type="text/css">
	.st0{fill:#6A49FA;}
</style>
<g transform="translate(0.000000,1000.000000) scale(0.100000,-0.100000)">
	<path class="st0" d="M0,5000V0h5000h5000v5000v5000H5000H0V5000z M4157,5835c339-45,590-131,1133-390c398-190,576-260,779-305
		c317-70,693-33,1041,105c219,87,375,175,753,427c292,194,309,201,361,153c37-34,34-69-20-204c-397-994-1048-1495-1969-1516
		c-403-9-701,63-1235,298c-685,300-873,358-1220,374c-301,13-618-41-945-162c-128-47-405-183-565-278c-380-224-404-237-435-237
		c-43,0-85,39-85,80c0,82,252,499,456,755c102,127,324,353,437,444c320,258,684,417,1050,460C3813,5853,4032,5851,4157,5835z"/>
</g>
</svg>
